# Blender 4.4.1
# www.blender.org
mtllib player.mtl
o 立方体
v -0.500000 -0.423891 0.307982
v -0.301023 0.576109 0.198170
v -0.500000 -0.423891 -0.343792
v -0.301023 0.576109 -0.252641
v 0.500000 -0.423891 0.307982
v 0.301023 0.576109 0.198170
v 0.500000 -0.423891 -0.343792
v 0.301023 0.576109 -0.252641
v -0.067940 -0.423891 0.599123
v 0.067940 -0.423891 0.599123
v 0.034868 0.576109 0.382864
v -0.034868 0.576109 0.382864
v 0.364243 -0.423891 -0.400877
v -0.364243 -0.423891 -0.400877
v -0.283265 0.576109 -0.271468
v 0.283265 0.576109 -0.271468
v -0.500000 0.381839 0.307982
v -0.500000 0.381839 -0.343792
v 0.500000 0.381839 -0.343792
v 0.500000 0.381839 0.307982
v -0.067940 0.381839 0.599123
v 0.364243 0.381839 -0.400877
v 0.067940 0.381839 0.599123
v -0.364243 0.381839 -0.400877
v -0.374202 0.501494 0.238557
v -0.374202 0.501494 -0.286164
v 0.374202 0.501494 -0.286164
v 0.374202 0.501494 0.238557
v -0.047031 0.501495 0.462400
v 0.313047 0.501494 -0.351004
v 0.047031 0.501495 0.462400
v -0.313047 0.501494 -0.351004
vn -1.0000 -0.0000 -0.0000
vn 1.0000 -0.0000 -0.0000
vn -0.5588 -0.0000 0.8293
vn -0.0000 1.0000 -0.0000
vn -0.0000 -1.0000 -0.0000
vn 0.5588 -0.0000 0.8293
vn -0.0000 -0.0000 1.0000
vn 0.3876 -0.0000 -0.9218
vn -0.3876 -0.0000 -0.9218
vn -0.0000 -0.0000 -1.0000
vn -0.6892 0.7246 -0.0000
vn 0.6892 0.7246 -0.0000
vn -0.3889 0.7234 0.5705
vn -0.3833 0.7287 0.5675
vn -0.3910 0.7214 0.5715
vn 0.6246 0.5128 -0.5891
vn 0.3889 0.7233 0.5705
vn 0.3833 0.7287 0.5675
vn 0.3818 0.7302 0.5666
vn -0.0000 0.7525 0.6586
vn -0.2951 0.6483 -0.7019
vn -0.0000 0.3847 -0.9230
vn -0.7139 0.7002 -0.0000
vn 0.7139 0.7002 -0.0000
vn -0.4095 0.6958 0.5901
vn 0.5088 0.7147 -0.4799
vn 0.3992 0.7073 0.5834
vn -0.0000 0.7293 0.6842
vn -0.5088 0.7147 -0.4799
vn -0.0000 0.7293 -0.6842
vn -0.3818 0.7302 0.5666
vn 0.2951 0.6483 -0.7019
vn 0.3910 0.7214 0.5715
vn -0.6246 0.5128 -0.5891
vn -0.3992 0.7073 0.5834
vn 0.4095 0.6958 0.5901
vt 0.345829 0.334044
vt 0.319096 0.006867
vt 0.470475 0.081616
vt 0.249825 0.722284
vt 0.470475 0.903651
vt 0.302357 0.954395
vt 0.657423 0.333526
vt 0.522904 0.068913
vt 0.657423 0.068913
vt 0.550867 0.947791
vt 0.621295 0.793066
vt 0.710176 0.838033
vt 0.558565 0.434109
vt 0.788134 0.548438
vt 0.717251 0.698722
vt 0.827898 0.333526
vt 0.693379 0.068913
vt 0.827898 0.068913
vt 0.693379 0.333526
vt 0.262828 0.962604
vt 0.217837 0.725703
vt 0.044496 0.729200
vt 0.028056 0.993133
vt 0.006867 0.729199
vt 0.066927 0.989932
vt 0.305576 0.375489
vt 0.194450 0.259295
vt 0.325733 0.604918
vt 0.226621 0.683076
vt 0.406773 0.463668
vt 0.352601 0.474225
vt 0.206898 0.688748
vt 0.410152 0.501681
vt 0.372683 0.640583
vt 0.354974 0.500728
vt 0.035338 0.683550
vt 0.056016 0.690391
vt 0.281202 0.400511
vt 0.183559 0.314882
vt 0.298030 0.585646
vt 0.210645 0.655928
vt 0.319748 0.480699
vt 0.204332 0.658055
vt 0.321506 0.500221
vt 0.054631 0.657851
vt 0.060613 0.660363
vt 0.522904 0.333526
vt 0.710176 0.947791
vt 0.705477 0.952375
vt 0.555566 0.952375
vt 0.550867 0.838033
vt 0.639748 0.793066
vt 0.558565 0.698722
vt 0.544667 0.662799
vt 0.544667 0.470032
vt 0.717251 0.434109
vt 0.788134 0.584393
vt 0.176549 0.348527
s 1
usemtl マテリアル
f 17/1/1 3/2/1 1/3/1
f 19/4/2 5/5/2 7/6/2
f 21/7/3 1/8/3 9/9/3
f 4/10/4 12/11/4 6/12/4
f 7/13/5 10/14/5 1/15/5
f 20/16/6 10/17/6 5/18/6
f 23/19/7 9/9/7 10/17/7
f 19/4/8 13/20/8 22/21/8
f 24/22/9 3/23/9 18/24/9
f 22/21/10 14/25/10 24/22/10
f 25/26/11 18/27/11 17/1/11
f 28/28/12 19/4/12 27/29/12
f 25/26/13 21/30/14 29/31/15
f 27/29/16 22/21/16 30/32/16
f 28/28/17 23/33/18 20/34/19
f 29/31/20 23/33/20 31/35/20
f 26/36/21 24/22/21 18/24/21
f 30/32/22 24/22/22 32/37/22
f 2/38/23 26/39/23 25/26/23
f 6/40/24 27/29/24 8/41/24
f 2/38/25 29/31/25 12/42/25
f 8/41/26 30/32/26 16/43/26
f 6/40/27 31/35/27 28/28/27
f 12/42/28 31/35/28 11/44/28
f 4/45/29 32/37/29 26/36/29
f 16/43/30 32/37/30 15/46/30
f 17/1/1 18/27/1 3/2/1
f 19/4/2 20/34/2 5/5/2
f 21/7/3 17/47/3 1/8/3
f 6/12/4 8/48/4 16/49/4
f 16/49/4 15/50/4 4/10/4
f 4/10/4 2/51/4 12/11/4
f 12/11/4 11/52/4 6/12/4
f 6/12/4 16/49/4 4/10/4
f 1/15/5 3/53/5 14/54/5
f 14/54/5 13/55/5 7/13/5
f 7/13/5 5/56/5 10/14/5
f 10/14/5 9/57/5 1/15/5
f 1/15/5 14/54/5 7/13/5
f 20/16/6 23/19/6 10/17/6
f 23/19/7 21/7/7 9/9/7
f 19/4/8 7/6/8 13/20/8
f 24/22/9 14/25/9 3/23/9
f 22/21/10 13/20/10 14/25/10
f 25/26/11 26/39/11 18/27/11
f 28/28/12 20/34/12 19/4/12
f 25/26/13 17/1/31 21/30/14
f 27/29/32 19/4/32 22/21/32
f 28/28/17 31/35/33 23/33/18
f 29/31/20 21/30/20 23/33/20
f 26/36/34 32/37/34 24/22/34
f 30/32/22 22/21/22 24/22/22
f 2/38/23 4/58/23 26/39/23
f 6/40/24 28/28/24 27/29/24
f 2/38/35 25/26/35 29/31/35
f 8/41/26 27/29/26 30/32/26
f 6/40/36 11/44/36 31/35/36
f 12/42/28 29/31/28 31/35/28
f 4/45/29 15/46/29 32/37/29
f 16/43/30 30/32/30 32/37/30
