# Blender 4.4.1
# www.blender.org
mtllib enemy.mtl
o enemy
v -0.500000 -0.500000 0.500000
v -0.500000 -0.500000 -0.500000
v -0.063154 0.500000 -0.004548
v -0.063154 0.500000 -0.500000
v 0.500000 -0.500000 0.500000
v 0.500000 -0.500000 -0.500000
v 0.063154 0.500000 -0.004548
v 0.063154 0.500000 -0.500000
vn -0.0000 0.4505 0.8928
vn -0.0000 1.0000 -0.0000
vn 0.9164 0.4003 -0.0000
vn -0.0000 -0.0000 -1.0000
vn -0.9164 0.4003 -0.0000
vn -0.0000 -1.0000 -0.0000
vt 0.000110 0.723366
vt 0.155836 0.413639
vt 0.276634 0.723366
vt 0.120909 0.276634
vt 0.155836 0.276634
vt 0.631104 0.168334
vt 0.329346 0.031330
vt 0.631104 0.031330
vt 0.276634 0.000110
vt 0.000110 0.000110
vt 0.969046 0.026369
vt 0.667289 0.163373
vt 0.667289 0.026369
vt 0.276634 0.999890
vt 0.000110 0.999890
vt 0.120909 0.413639
vt 0.329346 0.307853
vt 0.969046 0.302893
s 1
usemtl Material.002
f 5/1/1 3/2/1 1/3/1
f 3/2/2 8/4/2 4/5/2
f 7/6/3 6/7/3 8/8/3
f 2/9/4 8/4/4 6/10/4
f 2/11/5 3/12/5 4/13/5
f 5/1/6 2/14/6 6/15/6
f 5/1/1 7/16/1 3/2/1
f 3/2/2 7/16/2 8/4/2
f 7/6/3 5/17/3 6/7/3
f 2/9/4 4/5/4 8/4/4
f 2/11/5 1/18/5 3/12/5
f 5/1/6 1/3/6 2/14/6
